<svg xmlns="http://www.w3.org/2000/svg" width="375" viewBox="0 0 375 375" height="375" version="1.0"><defs><clipPath id="a"><path d="M 106 94 L 280 94 L 280 290.625 L 106 290.625 Z M 106 94"/></clipPath></defs><g clip-path="url(#a)"><path fill="#F92E54" d="M 265.515625 193.996094 C 284.558594 162.527344 281.980469 120.976562 269.605469 96.214844 C 269.058594 95.125 267.980469 94.40625 266.75 94.328125 C 265.527344 94.253906 264.363281 94.828125 263.6875 95.84375 C 246.960938 120.949219 231.742188 137.75 209.5 159.984375 C 188.609375 180.886719 166.992188 202.5 153.917969 202.5 C 150.527344 202.5 147.285156 200.101562 143.855469 197.558594 C 139.996094 194.722656 135.632812 191.488281 130.300781 191.488281 C 122.765625 191.488281 115.71875 197.632812 107.464844 211.394531 C 106.828125 212.449219 106.8125 213.777344 107.421875 214.847656 C 108.027344 215.914062 109.171875 216.585938 110.402344 216.585938 C 130.226562 216.585938 134.804688 224.210938 140.105469 233.050781 C 145.492188 242.039062 151.582031 252.1875 173.476562 252.824219 C 174.332031 254.832031 175.125 257.121094 175.949219 259.5 C 180.46875 272.492188 186.65625 290.269531 213.796875 290.269531 C 217.828125 290.269531 222.265625 289.867188 227.015625 289.078125 C 257.21875 284.050781 258.375 269.296875 258 264.914062 C 257.144531 254.492188 246.234375 246.015625 233.695312 246.015625 C 224.527344 246.015625 204.039062 244.472656 201.191406 230.96875 C 236.886719 229.078125 255.832031 209.988281 265.515625 193.996094 Z M 265.515625 193.996094"/></g><path fill="#F92E54" d="M 127.183594 185.011719 C 128.210938 184.855469 129.21875 184.644531 130.300781 184.644531 C 137.886719 184.644531 143.683594 188.925781 147.917969 192.050781 C 149.855469 193.480469 152.773438 195.648438 153.914062 195.648438 C 162.792969 195.648438 181.566406 178.050781 197.546875 162.230469 C 201.921875 139.394531 197.421875 115.097656 190.34375 100.367188 C 185.957031 91.253906 180.886719 86.4375 175.675781 86.4375 C 174.761719 86.4375 173.894531 86.800781 173.25 87.4375 C 170.253906 90.421875 168.570312 95.480469 166.246094 102.476562 C 162.066406 115 155.753906 133.945312 136.980469 152.71875 C 125.859375 163.835938 125.078125 174.632812 126.375 181.730469 C 126.585938 182.863281 126.867188 183.949219 127.183594 185.011719 Z M 127.183594 185.011719"/></svg>