<svg xmlns="http://www.w3.org/2000/svg" width="375" viewBox="0 0 375 375" height="375" version="1.0"><defs><clipPath id="a"><path d="M 0 0 L 375 0 L 375 258.75 L 0 258.75 Z M 0 0"/></clipPath></defs><g clip-path="url(#a)"><path fill="#F92E54" d="M 161.019531 59.917969 C 142.390625 60.425781 127.574219 63.414062 116.542969 68.917969 C 105.511719 74.445312 96.808594 83.070312 90.433594 94.84375 C 115.921875 94.84375 137.066406 101.085938 153.859375 113.578125 C 170.644531 126.082031 179.035156 146.429688 179.035156 174.609375 C 179.035156 185.144531 177.203125 195.4375 173.523438 205.496094 C 169.84375 215.535156 164.203125 224.425781 156.601562 232.140625 C 149.007812 239.859375 139.816406 246.234375 129.03125 251.261719 C 118.25 256.292969 105.882812 258.789062 91.914062 258.789062 C 64.207031 258.789062 41.96875 249.789062 25.183594 231.78125 C 8.398438 213.777344 0 189.695312 0 159.5625 C 0 142.898438 2.390625 126.046875 7.171875 109.011719 C 11.949219 91.988281 20.464844 76.171875 32.726562 61.585938 C 44.980469 47.011719 61.515625 34.199219 82.351562 23.183594 C 103.171875 12.140625 129.414062 4.414062 161.019531 0 Z M 356.972656 59.917969 C 338.332031 60.425781 323.515625 63.414062 312.488281 68.917969 C 301.464844 74.445312 292.640625 83.070312 286.023438 94.855469 C 311.753906 94.855469 333.015625 101.097656 349.804688 113.585938 C 366.589844 126.089844 375 146.4375 375 174.617188 C 375 185.15625 373.097656 195.445312 369.300781 205.503906 C 365.484375 215.542969 359.851562 224.433594 352.367188 232.152344 C 344.902344 239.871094 335.773438 246.246094 324.992188 251.269531 C 314.191406 256.304688 301.707031 258.800781 287.496094 258.800781 C 260.042969 258.800781 237.867188 249.796875 220.960938 231.792969 C 204.035156 213.773438 195.582031 189.691406 195.582031 159.546875 C 195.582031 142.882812 197.960938 126.035156 202.742188 108.996094 C 207.519531 91.960938 216.101562 76.15625 228.472656 61.570312 C 240.84375 46.996094 257.457031 34.183594 278.292969 23.167969 C 299.121094 12.140625 325.347656 4.414062 356.972656 0 Z M 356.972656 59.917969"/></g></svg>